<?xml version="1.0" encoding="iso-8859-1"?>
<!-- Uploaded to: SVG Repo, www.svgrepo.com, Generator: SVG Repo Mixer Tools -->
<svg height="800px" width="800px" version="1.1" id="Layer_1" xmlns="http://www.w3.org/2000/svg" xmlns:xlink="http://www.w3.org/1999/xlink" 
	 viewBox="0 0 512 512" xml:space="preserve">
<path style="fill:#AC92EC;" d="M512,256c0,141.375-114.594,256-256,256C114.625,512,0,397.375,0,256S114.625,0,256,0
	C397.406,0,512,114.625,512,256z"/>
<path style="fill:#434A54;" d="M500.562,11.438c-20.812-20.812-67-12.312-124.844,18.25c7.469,3.938,14.688,8.25,21.688,12.906
	c48.281-23.5,78.812-25.344,88.062-16.062c10.031,10,7.094,44.781-22.062,99.906c-14.969,28.328-35.031,58.906-59.625,90.859
	c-25.656,33.359-55.062,66.672-87.438,99.047l0,0c-32.375,32.375-65.688,61.781-99.031,87.438
	c-31.969,24.594-62.531,44.656-90.875,59.625c-55.125,29.141-89.906,32.094-99.906,22.078c-9.281-9.266-7.438-39.797,16.062-88.062
	c-4.656-7-8.969-14.234-12.906-21.703C-0.875,433.578-9.375,479.75,11.438,500.562c41.656,41.656,184.938-34.062,320-169.125
	C466.5,196.359,542.219,53.094,500.562,11.438z"/>
<g>
	<path style="fill:#CCD1D9;" d="M256.938,315.969c-4.188,4.156-4.188,10.906,0,15.078c4.156,4.172,10.906,4.172,15.062,0
		l44.5-44.484l-15.094-15.094L256.938,315.969z"/>
	<path style="fill:#CCD1D9;" d="M317.281,376.312c-4.188,4.156-4.188,10.906,0,15.062c4.156,4.188,10.906,4.188,15.062,0
		l44.5-44.484l-15.094-15.078L317.281,376.312z"/>
</g>
<path style="fill:#E6E9ED;" d="M301.406,346.891c20.844,20.828,54.625,20.828,75.438,0c20.844-20.828,20.844-54.594,0-75.422
	c-20.812-20.828-54.594-20.828-75.438,0C280.594,292.297,280.594,326.062,301.406,346.891z"/>
</svg>